<svg xmlns="http://www.w3.org/2000/svg" id="Layer_1" data-name="Layer 1" viewBox="0 0 228 70"><title>icon-refrigerated-v2 copy</title><path d="M219.74,41.87,207.83,35.3V20h3.79a1.36,1.36,0,0,0,0-2.72H187.27a1.35,1.35,0,0,0-1.35,1.35h0V25.5a1.37,1.37,0,0,0,.7,1.19l31.11,17.18V54.49h-4.14a7.25,7.25,0,0,0-14.25,0H177.79a1.36,1.36,0,1,0-.23,2.71h21.78a7.25,7.25,0,0,0,14.25,0h5.5a1.35,1.35,0,0,0,1.36-1.34h0V43.06A1.36,1.36,0,0,0,219.74,41.87ZM205.11,33.8l-16.48-9.1V20h16.48Zm5.89,22a4.55,4.55,0,1,1-4.57-4.56A4.55,4.55,0,0,1,211,55.85Z" style="fill:#005293"></path><path d="M131.43,48.58a7.27,7.27,0,1,0,7.26,7.28h0A7.27,7.27,0,0,0,131.43,48.58Zm0,11.81h0A4.55,4.55,0,1,1,136,55.85,4.55,4.55,0,0,1,131.43,60.39Z" style="fill:#005293"></path><path d="M39.92,48.58a7.27,7.27,0,1,0,7.26,7.28h0A7.27,7.27,0,0,0,39.92,48.58Zm4.54,7.27a4.55,4.55,0,1,1-4.56-4.56,4.55,4.55,0,0,1,4.56,4.56Z" style="fill:#005293"></path><path d="M119.54,54.49H51.69a1.36,1.36,0,0,0-.23,2.71h67.85a1.36,1.36,0,0,0,.23-2.71Z" style="fill:#005293"></path><path d="M181.36,39.17V18a6.53,6.53,0,0,0-6.53-6.52H171.7V8.25a1.36,1.36,0,0,0-1.36-1.36H8.91A1.36,1.36,0,0,0,7.55,8.25v47.6A1.35,1.35,0,0,0,8.9,57.2h7a7.27,7.27,0,1,0,0-2.71h-5.6V45.73H169v8.76H155.47a7.27,7.27,0,1,0,0,2.71h14.87a1.35,1.35,0,0,0,1.36-1.34h0V40.53H180A1.36,1.36,0,0,0,181.36,39.17ZM23,51.3a4.55,4.55,0,1,1-4.55,4.55A4.55,4.55,0,0,1,23,51.3Zm129.9,4.55a4.55,4.55,0,1,1-4.55-4.56,4.55,4.55,0,0,1,4.55,4.56ZM169,43H10.27V9.61H169Zm9.59-5.19H171.7V14.24h3.08A3.82,3.82,0,0,1,178.59,18Z" style="fill:#005293"></path><path d="M73,32.37A1,1,0,1,0,74.39,31c-1.08-1.07-.61-2.44.23-4.57a16.3,16.3,0,0,0,.84-2.5,5,5,0,0,0,0-2.52,4,4,0,0,0-1.07-1.78A.95.95,0,1,0,73,21c1.16,1.16.68,2.56-.19,4.76S71,30.37,73,32.37Z" style="fill:#005293"></path><path d="M80.6,32.37A1,1,0,1,0,81.94,31c-1.07-1.07-.6-2.44.24-4.57A16.3,16.3,0,0,0,83,24a5.08,5.08,0,0,0,0-2.51,4.1,4.1,0,0,0-1.08-1.79A.95.95,0,0,0,80.58,21c1.16,1.16.69,2.56-.18,4.76a17.21,17.21,0,0,0-.84,2.48,5,5,0,0,0,0,2.45A4,4,0,0,0,80.6,32.37Z" style="fill:#005293"></path><path d="M88.16,32.37a.94.94,0,0,0,1.33,0h0a1,1,0,0,0,0-1.34c-1.07-1.07-.61-2.44.23-4.57s1.88-4.7-.23-6.8a.93.93,0,0,0-1.32,0h0a.93.93,0,0,0,0,1.32l0,0c1.15,1.16.68,2.56-.2,4.76a16,16,0,0,0-.82,2.48,4.84,4.84,0,0,0,0,2.45A3.81,3.81,0,0,0,88.16,32.37Z" style="fill:#005293"></path><path d="M101,24.28,104,26l-3,1.73-.49.29a1,1,0,0,0,.49,1.77.87.87,0,0,0,.46-.13l3.5-2v4a1,1,0,1,0,1.9,0v-4l3.49,2a.9.9,0,0,0,.47.13,1,1,0,0,0,.49-1.77l-.49-.28-3-1.74,3-1.75.49-.27a1,1,0,0,0,.34-1.3.93.93,0,0,0-.82-.48.87.87,0,0,0-.46.13l-3.5,2v-4a1,1,0,1,0-1.9,0v4l-3.5-2a1,1,0,0,0-.46-.13.94.94,0,0,0-.82.48,1,1,0,0,0,.29,1.32Z" style="fill:#005293"></path></svg>