<svg xmlns="http://www.w3.org/2000/svg" width="180" height="180" viewBox="0 0 180 180">
  <g id="copacking" transform="translate(-869 -1200)">
    <rect width="180" height="180" transform="translate(869 1200)" fill="transparent"/>
    <path id="Path_15620" data-name="Path 15620" d="M2905.186,9898.457l9.993-4.047v-15.7l-45.346-18.978-9.514,5.705,44.867,18.37Z" transform="translate(-1927 -8607)" fill="#005787"/>
    <g id="Box" transform="translate(912 1241.999)">
      <path id="Path_15619" data-name="Path 15619" d="M92.2,22.406c-.042-.028-.088-.042-.132-.065a.688.688,0,0,0-.11-.065l-43.4-20.15a1.535,1.535,0,0,0-1.211,0H47.34l-43.4,20.15a.729.729,0,0,0-.113.067c-.042.023-.088.037-.129.064A1.55,1.55,0,0,0,3,23.7V74.85a1.55,1.55,0,0,0,.939,1.424l43.4,18.6a1.55,1.55,0,0,0,.611.126,1.528,1.528,0,0,0,.594-.135l.017.009,43.4-18.6A1.55,1.55,0,0,0,92.9,74.85V23.7a1.55,1.55,0,0,0-.7-1.294ZM47.951,5.255l39.6,18.388L76.367,28.435,35.2,11.177ZM68.1,35.35l6.2-2.66V44.439l-6.2,3.1Zm-1.818-2.593L25.525,15.669l5.87-2.725L72.4,30.134ZM46.4,91.1,6.1,73.829V26.051l40.3,17.27Zm1.55-50.486L8.351,23.643l13.369-6.2,40.6,17.015ZM89.8,73.829,49.5,91.1V43.322L65,36.68V50.05a1.55,1.55,0,0,0,2.243,1.4L77.4,46.358V31.365l12.4-5.313Z" transform="translate(0 0)" fill="#b7b7b7"/>
    </g>
  </g>
</svg>
