<svg xmlns="http://www.w3.org/2000/svg" xmlns:xlink="http://www.w3.org/1999/xlink" width="86" height="89" viewBox="0 0 86 89"><defs><path id="cwhea" d="M935.188 1304.345v-13.317h53.747v15.526h-53.747z"/><path id="cwheb" d="M978.255 1318.15a1.665 1.665 0 0 1-1.55-1.038 1.668 1.668 0 0 1-.096-.97 1.74 1.74 0 0 1 .25-.603 1.62 1.62 0 0 1 .464-.463c.093-.06.19-.113.29-.155a1.678 1.678 0 0 1 1.831.363c.313.312.493.746.493 1.187a1.685 1.685 0 0 1-.748 1.396 1.692 1.692 0 0 1-.934.284z"/><path id="cwhec" d="M989.928 1314.716c-.998 0-1.806.773-1.806 1.726 0 .954.808 1.726 1.806 1.726h3.052v12.754h-5.762v-7.472c0-.953-.81-1.726-1.806-1.726h-9.63c-.998 0-1.807.773-1.807 1.726v7.472h-5.586v-7.472c0-.953-.81-1.726-1.806-1.726h-9.63c-.997 0-1.807.773-1.807 1.726v7.472h-5.586v-7.472c0-.953-.808-1.726-1.806-1.726h-9.63c-.998 0-1.806.773-1.806 1.726v7.472h-5.763v-12.754h36.028c.998 0 1.806-.772 1.806-1.726 0-.953-.808-1.726-1.806-1.726h-39.902s8.272-5.251 9.944-6.39h50.229c1.67 1.138 9.973 6.39 9.973 6.39zm-12.34 16.206v-5.745h6.018v5.745zm-18.83 0v-5.745h6.019v5.745zm-18.828 0v-5.745h6.018v5.745zm13.858-26.048h-6.018v-5.746h6.018zm21.978 0h-6.019v-5.746h6.019zm10.41-12.395v12.395h-6.798v-7.472c0-.954-.81-1.726-1.806-1.726h-9.63c-.998 0-1.807.772-1.807 1.726v7.472H957.4v-7.472c0-.954-.808-1.726-1.806-1.726h-9.63c-.997 0-1.806.772-1.806 1.726v7.472h-6.8v-12.395zm-46.158-7.992h43.454c1.333.906 7.096 4.54 7.096 4.54h-57.63s5.747-3.635 7.08-4.54zm44.292-8.782a17.6 17.6 0 0 0-1.859 5.33h-41.366a17.6 17.6 0 0 0-1.86-5.33zm-44.44-4.738c7.583-4.5 14.117-10.261 19.418-17.124l2.48-3.21 2.48 3.21c5.301 6.863 11.834 12.624 19.418 17.124l2.166 1.286h-48.128zm63.87 44.045l-9.758-6.296a95.209 95.209 0 0 1-4.193-2.637v-13.6h6.683c.794 0 1.494-.495 1.727-1.22.232-.726-.059-1.512-.717-1.937l-7.923-5.112a77.324 77.324 0 0 1-3.6-2.27 14.302 14.302 0 0 1 2.548-6.225l.008-.01h3.65c.806 0 1.515-.512 1.736-1.253.222-.742-.099-1.534-.784-1.94l-7.546-4.477c-7.193-4.269-13.39-9.734-18.417-16.242l-3.933-5.091a1.835 1.835 0 0 0-1.454-.702c-.572 0-1.111.26-1.452.702l-3.933 5.09c-5.028 6.51-11.225 11.974-18.418 16.243l-7.545 4.477c-.686.407-1.005 1.198-.784 1.94.221.741.93 1.253 1.736 1.253h3.65l.008.01a14.301 14.301 0 0 1 2.543 6.197 76.685 76.685 0 0 1-3.584 2.263l-.062.039-7.877 5.112c-.656.425-.944 1.21-.712 1.935.234.724.934 1.218 1.727 1.218h6.683v13.563a94.823 94.823 0 0 1-4.193 2.639l-.062.038-9.7 6.296c-.657.425-.945 1.21-.712 1.935.233.724.933 1.218 1.726 1.218h6.137v14.48c0 .954.809 1.726 1.806 1.726h66.037c.998 0 1.807-.772 1.807-1.726v-14.48h6.137c.793 0 1.494-.495 1.727-1.22.232-.726-.059-1.512-.717-1.936z"/></defs><g><g transform="translate(-919 -1246)"><g><use fill="#005787" xlink:href="#cwhea"/></g><g><g><use fill="#b7b7b7" xlink:href="#cwheb"/></g><g><use fill="#b7b7b7" xlink:href="#cwhec"/></g></g></g></g></svg>