<svg xmlns="http://www.w3.org/2000/svg" xmlns:xlink="http://www.w3.org/1999/xlink" width="71" height="86" viewBox="0 0 71 86"><defs><path id="dr6na" d="M1035.188 1989.356h44.938v27.25h-44.938z"/><path id="dr6nb" d="M1070.494 1980.669a1.668 1.668 0 1 0 .001 3.336 1.668 1.668 0 0 0 0-3.336z"/><path id="dr6nc" d="M1043.818 1980.669a1.668 1.668 0 1 0 .001 3.336 1.668 1.668 0 0 0 0-3.336z"/><path id="dr6nd" d="M1079.724 2056.028l-7.972-11.003h4.439l10.533 11.003zm-35.313-7.669l2.416-3.334h20.807l2.416 3.334zm-9.675 7.67h-7.133l10.66-11.004h4.446zm-5.923-68.826a8.36 8.36 0 0 1 6.7-8.175 87.445 87.445 0 0 1 17.105-1.694h8.808c5.814 0 11.654.574 17.359 1.706a8.355 8.355 0 0 1 4.82 2.885 8.36 8.36 0 0 1 1.894 5.291v49.472a5.007 5.007 0 0 1-5.002 5.002h-46.682a5.007 5.007 0 0 1-5.002-5.002zm63.019 69.34l-11.033-11.526c4.458-.16 8.035-3.833 8.035-8.329v-49.472c0-2.694-.942-5.324-2.652-7.407a11.696 11.696 0 0 0-6.749-4.04 92.736 92.736 0 0 0-18.007-1.769h-8.808a90.76 90.76 0 0 0-17.758 1.758c-5.436 1.087-9.382 5.901-9.382 11.445v49.485c0 4.534 3.638 8.23 8.148 8.332l-11.157 11.516a1.666 1.666 0 0 0 1.197 2.827h11.921c.534 0 1.037-.256 1.35-.69l5.058-6.98h30.471l5.058 6.981c.313.433.815.689 1.35.689h11.754a1.667 1.667 0 0 0 1.204-2.82z"/><path id="dr6ne" d="M1078.83 2015.014h-20.007v-24.342h20.007zm-23.341 0h-20.007v-24.342h20.007zm25.009-27.676h-46.683c-.921 0-1.668.747-1.668 1.667v27.676c0 .921.747 1.668 1.668 1.668h46.683c.92 0 1.667-.747 1.667-1.668v-27.676c0-.92-.747-1.667-1.667-1.667z"/><path id="dr6nf" d="M1063.825 1980.669h-13.338a1.667 1.667 0 0 0 0 3.334h13.338a1.667 1.667 0 0 0 0-3.334z"/><path id="dr6ng" d="M1075.496 2033.354a3.338 3.338 0 0 1-3.335-3.335 3.338 3.338 0 0 1 3.335-3.334 3.338 3.338 0 0 1 3.334 3.334 3.338 3.338 0 0 1-3.334 3.335zm0-10.004a6.677 6.677 0 0 0-6.67 6.67 6.677 6.677 0 0 0 6.67 6.668 6.677 6.677 0 0 0 6.669-6.669 6.677 6.677 0 0 0-6.67-6.669z"/><path id="dr6nh" d="M1038.816 2033.354a3.338 3.338 0 0 1-3.334-3.335 3.338 3.338 0 0 1 3.334-3.334 3.338 3.338 0 0 1 3.335 3.334 3.338 3.338 0 0 1-3.335 3.335zm0-10.004a6.677 6.677 0 0 0-6.669 6.67 6.677 6.677 0 0 0 6.67 6.668 6.677 6.677 0 0 0 6.668-6.669 6.677 6.677 0 0 0-6.669-6.669z"/><path id="dr6ni" d="M1063.825 2025.018h-13.338a1.667 1.667 0 0 0 0 3.334h13.338a1.667 1.667 0 0 0 0-3.334z"/><path id="dr6nj" d="M1063.825 2031.687h-13.338a1.667 1.667 0 0 0 0 3.334h13.338a1.667 1.667 0 0 0 0-3.334z"/></defs><g><g transform="translate(-1022 -1974)"><use fill="#005787" xlink:href="#dr6na"/></g><g transform="translate(-1022 -1974)"><g><g><g><use fill="#b7b7b7" xlink:href="#dr6nb"/></g></g></g><g><g><g><use fill="#b7b7b7" xlink:href="#dr6nc"/></g></g></g><g><g><g><use fill="#b7b7b7" xlink:href="#dr6nd"/></g></g></g><g><g><g><use fill="#b7b7b7" xlink:href="#dr6ne"/></g></g></g><g><g><g><use fill="#b7b7b7" xlink:href="#dr6nf"/></g></g></g><g><g><g><use fill="#b7b7b7" xlink:href="#dr6ng"/></g></g></g><g><g><g><use fill="#b7b7b7" xlink:href="#dr6nh"/></g></g></g><g><g><g><use fill="#b7b7b7" xlink:href="#dr6ni"/></g></g></g><g><g><g><use fill="#b7b7b7" xlink:href="#dr6nj"/></g></g></g></g></g></svg>