<svg xmlns="http://www.w3.org/2000/svg" xmlns:xlink="http://www.w3.org/1999/xlink" width="104" height="75" viewBox="0 0 104 75"><defs><path id="g29za" d="M1212.35 607.488h-10.336l1.588-8.497 1.083-11.941h28.075v20.438z"/><path id="g29zb" d="M1201.049 581.84l.616.527-3.94 3.408a1.665 1.665 0 0 0-.493 1.878c.262.673.92 1.107 1.641 1.083h2.596v1.75h-10.384zm17.076-9.212l14.519 12.606h-29.074zm17.065 9.211l9.938 8.648h-10.83v-1.751h3.033a1.695 1.695 0 0 0 1.148-2.992l-3.92-3.38zm9.393 24.187h-10.286v-12.038h10.286zm-19.697 0v-8.39c0-.967-.889-1.678-1.856-1.678h-9.7c-.966 0-1.794.711-1.794 1.678v8.39h-6.566v-17.29h25.826v17.29zm-3.501 0h-6.347v-6.566h6.347zm-29.984-12.038h10.068v12.038H1191.4zm-1.698 15.54h56.537c.967 0 1.845-.77 1.845-1.736v-13.804h1.729a1.772 1.772 0 0 0 1.148-3.1l-14.622-12.702a1.753 1.753 0 0 0-2.295-.003l-2.157 1.867-12.613-10.952a1.75 1.75 0 0 0-2.294-.002l-12.64 10.946-2.143-1.86a1.75 1.75 0 0 0-2.294-.002l-14.662 12.697a1.776 1.776 0 0 0 1.148 3.111h1.51v13.804c.025.974.829 1.746 1.803 1.735z"/><path id="g29zc" d="M1280.684 629.006c-.812-5.69-5.527-10.093-11.206-10.093-5.679 0-10.393 4.402-11.205 10.093h-1.652v-23.637h26.7v23.637zm-11.206 9.999c-4.316 0-7.828-3.742-7.828-8.34 0-4.6 3.512-8.342 7.828-8.342 4.317 0 7.829 3.743 7.829 8.341 0 4.599-3.512 8.34-7.829 8.34zm-67.72-20.09c-5.678 0-10.393 4.4-11.206 10.09h-3.528V616.75h66.095v12.256h-40.156c-.812-5.69-5.527-10.093-11.205-10.093zm0 20.09c-4.317 0-7.828-3.742-7.828-8.34 0-4.6 3.511-8.342 7.828-8.342 4.316 0 7.828 3.743 7.828 8.341 0 4.599-3.512 8.34-7.828 8.34zm72.896-51.801l7.593 14.663h-25.626v-14.663zm2.614-2.544a1.765 1.765 0 0 0-1.553-.958h-20.828a1.793 1.793 0 0 0-1.768 1.783v27.763h-67.846a1.699 1.699 0 0 0-1.75 1.69v15.726c0 .968.783 1.843 1.75 1.843h5.28c.812 5.69 5.527 10.092 11.205 10.092s10.393-4.401 11.205-10.092h45.31c.812 5.69 5.527 10.092 11.206 10.092 5.679 0 10.393-4.401 11.205-10.092h4.388c.967 0 1.75-.875 1.75-1.843v-27.226c0-.284-.067-.564-.196-.817z"/></defs><g><g transform="translate(-1183 -568)"><g><use fill="#005787" xlink:href="#g29za"/></g><g><g><use fill="#b7b7b7" xlink:href="#g29zb"/></g><g><use fill="#b7b7b7" xlink:href="#g29zc"/></g></g></g></g></svg>