<svg xmlns="http://www.w3.org/2000/svg" xmlns:xlink="http://www.w3.org/1999/xlink" width="86" height="86" viewBox="0 0 86 86"><defs><path id="krgda" d="M1266.627 2047.073h31.539l-2.152-15.545h-7.04v-15.237h-15.292v15.237h-7.055z"/><path id="krgdb" d="M1320.65 2055.651h-7.422v-50.103c0-1.025-.83-1.856-1.856-1.856h-59.382c-1.026 0-1.856.83-1.856 1.856v50.103h-7.423v-56.424l38.97-21.258 38.97 21.258zm-11.133-11.134h-11.135v-12.99c0-1.026-.829-1.855-1.855-1.855h-5.567v-12.99c0-1.025-.83-1.856-1.856-1.856h-14.846c-1.025 0-1.855.83-1.855 1.856v12.99h-5.568c-1.025 0-1.855.829-1.855 1.855v12.99h-11.134v-37.114h55.67zm-29.692-11.134v11.134h-11.134v-11.134zm7.423-3.711h-11.134v-11.135h11.134zm7.423 14.845h-11.134v-11.134h11.134zm-40.825 3.712h55.67v7.422h-55.67zm69.55-51.734l-40.826-22.269a1.855 1.855 0 0 0-1.776 0l-40.825 22.269c-.598.325-.969.95-.969 1.63v59.382c0 1.026.83 1.856 1.856 1.856h81.65c1.027 0 1.856-.83 1.856-1.856v-59.382c0-.68-.37-1.305-.967-1.63z"/><path id="krgdc" d="M1268.691 1994.413c0 1.024.83 1.856 1.856 1.856h22.268a1.855 1.855 0 1 0 0-3.711h-22.268c-1.026 0-1.856.83-1.856 1.855z"/></defs><g><g transform="translate(-1239 -1974)"><use fill="#005787" xlink:href="#krgda"/></g><g transform="translate(-1239 -1974)"><g><use fill="#b7b7b7" xlink:href="#krgdb"/></g><g><use fill="#b7b7b7" xlink:href="#krgdc"/></g></g></g></svg>