<svg fill="#fff" xmlns="http://www.w3.org/2000/svg" id="Layer_1" data-name="Layer 1" viewBox="0 0 228 70"><title>icon-flatbed</title><path d="M225.18,37.35l-.08,0L213,30.64V15.12h3.84a1.38,1.38,0,0,0,0-2.75H192.23a1.37,1.37,0,0,0-1.37,1.38v7a1.36,1.36,0,0,0,.71,1.2L211,32.64l0,0,12,6.66V50.06h-4.18a7.35,7.35,0,0,0-14.44,0H192.23a1.38,1.38,0,0,0,0,2.75h12.21a7.35,7.35,0,0,0,14.44,0h5.55a1.3,1.3,0,0,0,.75-.23,1.36,1.36,0,0,0,.63-1.15V38.51A1.38,1.38,0,0,0,225.18,37.35Zm-14.9-8.23L193.61,19.9V15.12h16.67ZM211.66,56a4.6,4.6,0,1,1,4.6-4.6A4.6,4.6,0,0,1,211.66,56Z" style="fill:#fff"></path><path d="M45.67,44.08A7.35,7.35,0,1,0,53,51.43,7.36,7.36,0,0,0,45.67,44.08Zm0,12a4.6,4.6,0,1,1,4.6-4.6A4.6,4.6,0,0,1,45.67,56Z" style="fill:#fff"></path><path d="M125.53,50.06H57.59a1.38,1.38,0,0,0,0,2.75h67.94a1.38,1.38,0,0,0,0-2.75Z" style="fill:#fff"></path><path d="M137.79,44.08a7.35,7.35,0,1,0,7.35,7.35A7.36,7.36,0,0,0,137.79,44.08Zm0,12a4.6,4.6,0,1,1,4.6-4.6A4.61,4.61,0,0,1,137.79,56Z" style="fill:#fff"></path><path d="M186,12.6a1.37,1.37,0,1,0-2.74,0V29.31h-61A1.37,1.37,0,0,0,121,30.68v7.77H3.57a1.21,1.21,0,0,0-.38.06,1.36,1.36,0,0,0,0,2.62,1.21,1.21,0,0,0,.38.06h9.35V51.43a1.38,1.38,0,0,0,1.38,1.38h7a7.36,7.36,0,1,0,0-2.75H15.66V41.19H183.3v8.87H162.14a7.34,7.34,0,1,0,0,2.75h22.54A1.37,1.37,0,0,0,186,51.43V39.91a.28.28,0,0,0,0-.09V30.68a.28.28,0,0,0,0-.09ZM28.54,46.83a4.6,4.6,0,1,1-4.6,4.6A4.61,4.61,0,0,1,28.54,46.83ZM154.91,56a4.6,4.6,0,1,1,4.6-4.6A4.6,4.6,0,0,1,154.91,56Zm-31.2-17.58V32.06H183.3v6.39Z" style="fill:#fff"></path></svg>