<svg fill="#fff" xmlns="http://www.w3.org/2000/svg" id="Layer_1" data-name="Layer 1" viewBox="0 0 228 70"><title>icon-dry-van</title><path d="M219.73,42,207.67,35.3V19.79h3.84a1.38,1.38,0,0,0,0-2.75H186.88a1.37,1.37,0,0,0-1.38,1.37v7a1.41,1.41,0,0,0,.71,1.21l19.42,10.72h0l12,6.66V54.73h-4.17a7.35,7.35,0,0,0-14.45,0h-12.2a1.38,1.38,0,1,0,0,2.75h12.2a7.36,7.36,0,0,0,14.45,0h5.55a1.37,1.37,0,0,0,1.37-1.38V43.17A1.36,1.36,0,0,0,219.73,42Zm-14.81-8.19-16.68-9.21V19.79h16.68ZM206.3,60.7a4.6,4.6,0,1,1,4.6-4.6A4.61,4.61,0,0,1,206.3,60.7Z" class="iconhov"></path><path d="M132.42,48.75a7.35,7.35,0,1,0,7.35,7.35A7.36,7.36,0,0,0,132.42,48.75Zm0,12a4.6,4.6,0,1,1,4.6-4.6A4.6,4.6,0,0,1,132.42,60.7Z" class="iconhov"></path><path d="M40.32,48.75a7.35,7.35,0,1,0,7.35,7.35A7.36,7.36,0,0,0,40.32,48.75Zm0,12a4.6,4.6,0,1,1,4.6-4.6A4.6,4.6,0,0,1,40.32,60.7Z" class="iconhov"></path><path d="M120.16,54.73H52.22a1.38,1.38,0,0,0,0,2.75h67.94a1.38,1.38,0,0,0,0-2.75Z" class="iconhov"></path><path d="M179.32,6.55H8.93A1.38,1.38,0,0,0,7.55,7.93V56.1a1.38,1.38,0,0,0,1.38,1.38h7a7.35,7.35,0,1,0,0-2.75H10.3V45.86H177.93v8.87H156.77a7.35,7.35,0,1,0,0,2.75h22.54a1.37,1.37,0,0,0,1.37-1.38V7.93A1.37,1.37,0,0,0,179.32,6.55ZM23.18,51.5a4.6,4.6,0,1,1-4.6,4.6A4.6,4.6,0,0,1,23.18,51.5Zm126.37,9.2a4.6,4.6,0,1,1,4.6-4.6A4.6,4.6,0,0,1,149.55,60.7ZM115.73,43.11H10.3V9.3H177.93V43.11Z" class="iconhov"></path></svg>