<svg xmlns="http://www.w3.org/2000/svg" xmlns:xlink="http://www.w3.org/1999/xlink" width="93" height="93" viewBox="0 0 93 93"><defs><path id="tp1ya" d="M949 932c0-5 5-10 10-10s10 5 10 10v34c0 5-5 10-10 10s-10-5-10-10z"/><path id="tp1yb" d="M1002.9 953.15h-32.55v-19.521l32.55 11.323zm-15.5 30.35v5.3h-19.279l2.204-12.122c.017-.092.025-.185.025-.278v-2.646zm-22.993 8.4h-9.814l-2.843-15.64v-58.622l1.455-8.113a6.226 6.226 0 0 1 5.94-4.425h.71a6.226 6.226 0 0 1 5.94 4.425l1.455 8.113v58.623zm-32.807-3.1v-5.3l17.05-9.746v2.646c0 .093.008.186.025.278l2.204 12.122zm-15.5-35.65v-8.2l32.55-11.314v19.514zM928.159 933h3.875l.93 2.804-6.033 2.099zm58.809 0h3.875l1.224 4.895-6.028-2.095zm17.99 9.386l-9.386-3.256-2.015-8.06a1.55 1.55 0 0 0-1.507-1.17h-6.2a1.55 1.55 0 0 0-1.471 1.062l-1.27 3.82-12.759-4.434V917.5c0-.092-.008-.184-.025-.274l-1.492-8.328a1.984 1.984 0 0 0-.036-.155 9.341 9.341 0 0 0-8.942-6.743h-.71a9.34 9.34 0 0 0-8.945 6.746c-.014.049-.026.1-.036.155l-1.492 8.328c-.016.09-.023.18-.022.271v12.848l-12.758 4.437-1.27-3.823a1.55 1.55 0 0 0-1.472-1.062h-6.2c-.71 0-1.33.484-1.504 1.173l-2.015 8.047-9.391 3.267a1.55 1.55 0 0 0-1.04 1.463v10.85c0 .856.694 1.55 1.55 1.55h34.1v13.935l-19.375 11.07c-.48.277-.776.79-.775 1.345v7.75c0 .856.694 1.55 1.55 1.55h21.39l.332 1.828A1.55 1.55 0 0 0 953.3 995h12.4a1.55 1.55 0 0 0 1.525-1.272l.335-1.828h21.39a1.55 1.55 0 0 0 1.55-1.55v-7.75c0-.555-.294-1.068-.775-1.346l-19.375-11.07V956.25h34.1a1.55 1.55 0 0 0 1.55-1.55v-10.85a1.55 1.55 0 0 0-1.041-1.464z"/><path id="tp1yc" d="M922.3 948.5v-3.1h-3.1v4.65c0 .856.694 1.55 1.55 1.55h24.8v-3.1z"/><path id="tp1yd" d="M973.45 951.6h24.8a1.55 1.55 0 0 0 1.55-1.55v-4.65h-3.1v3.1h-23.25z"/><path id="tp1ye" d="M936.25 984.15H944v3.1h-7.75z"/><path id="tp1yf" d="M975 984.15h7.75v3.1H975z"/></defs><g><g transform="translate(-913 -902)"><g><use fill="#005787" xlink:href="#tp1ya"/></g><g><g><use fill="#b7b7b7" xlink:href="#tp1yb"/></g><g><use fill="#b7b7b7" xlink:href="#tp1yc"/></g><g><use fill="#b7b7b7" xlink:href="#tp1yd"/></g><g><use fill="#b7b7b7" xlink:href="#tp1ye"/></g><g><use fill="#b7b7b7" xlink:href="#tp1yf"/></g></g></g></g></svg>