<svg xmlns="http://www.w3.org/2000/svg" xmlns:xlink="http://www.w3.org/1999/xlink" width="104" height="59" viewBox="0 0 104 59"><defs><path id="kq05a" d="M644 608.967v-10h65v10z"/><path id="kq05b" d="M680.784 600.967v-18.14H704v18.14z"/><path id="kq05c" d="M643.784 600.967v-16.14H669v16.14z"/><path id="kq05d" d="M666.676 600.967v-12.093h16.13v12.093z"/><path id="kq05e" d="M645.126 606.448v-6.23h62.278v6.23z"/><path id="kq05f" d="M739.161 622.303c-.812-5.69-5.527-10.092-11.206-10.092-5.678 0-10.392 4.402-11.204 10.092h-1.653v-23.636h26.7v23.636zm-11.205 10c-4.316 0-7.828-3.743-7.828-8.341 0-4.599 3.512-8.341 7.828-8.341 4.316 0 7.828 3.742 7.828 8.34 0 4.6-3.512 8.341-7.828 8.341zm-67.72-20.09c-5.678 0-10.394 4.4-11.206 10.09h-3.528v-12.256h66.094v12.256h-40.155c-.813-5.69-5.527-10.092-11.206-10.092zm0 20.09c-4.317 0-7.828-3.743-7.828-8.341 0-4.599 3.51-8.341 7.827-8.341s7.829 3.742 7.829 8.34c0 4.6-3.512 8.341-7.829 8.341zm72.896-51.801l7.593 14.663h-25.627v-14.663zm2.614-2.544a1.765 1.765 0 0 0-1.553-.958h-20.829a1.793 1.793 0 0 0-1.768 1.783v27.763h-67.845a1.699 1.699 0 0 0-1.751 1.69v15.726c0 .968.784 1.843 1.75 1.843h5.28c.812 5.69 5.528 10.091 11.205 10.091 5.679 0 10.393-4.4 11.206-10.09h45.31c.812 5.69 5.527 10.09 11.206 10.09 5.678 0 10.392-4.4 11.204-10.09h4.389c.966 0 1.75-.876 1.75-1.844v-27.226c0-.284-.067-.565-.196-.817z"/><clipPath id="kq05g"><use fill="#fff" xlink:href="#kq05a"/></clipPath><clipPath id="kq05h"><use fill="#fff" xlink:href="#kq05b"/></clipPath><clipPath id="kq05i"><use fill="#fff" xlink:href="#kq05c"/></clipPath><clipPath id="kq05j"><use fill="#fff" xlink:href="#kq05d"/></clipPath></defs><g><g transform="translate(-642 -577)"><g><use fill="#005787" xlink:href="#kq05e"/></g><g><g><g><use fill="#b7b7b7" xlink:href="#kq05f"/></g></g></g><g><use fill="#fff" fill-opacity="0" stroke="#b7b7b7" stroke-linecap="round" stroke-linejoin="round" stroke-miterlimit="50" stroke-width="5" clip-path="url(&quot;#kq05g&quot;)" xlink:href="#kq05a"/></g><g><use fill="#fff" fill-opacity="0" stroke="#b7b7b7" stroke-linecap="round" stroke-linejoin="round" stroke-miterlimit="50" stroke-width="5" clip-path="url(&quot;#kq05h&quot;)" xlink:href="#kq05b"/></g><g><use fill="#fff" fill-opacity="0" stroke="#b7b7b7" stroke-linecap="round" stroke-linejoin="round" stroke-miterlimit="50" stroke-width="5" clip-path="url(&quot;#kq05i&quot;)" xlink:href="#kq05c"/></g><g><use fill="#fff" fill-opacity="0" stroke="#b7b7b7" stroke-linecap="round" stroke-linejoin="round" stroke-miterlimit="50" stroke-width="5" clip-path="url(&quot;#kq05j&quot;)" xlink:href="#kq05d"/></g></g></g></svg>