<svg xmlns="http://www.w3.org/2000/svg" xmlns:xlink="http://www.w3.org/1999/xlink" width="100" height="103" viewBox="0 0 100 103"><defs><path id="2c0oa" d="M667.775 920.356h46.42v27.25h-46.42z"/><path id="2c0ob" d="M703.495 911.669a1.668 1.668 0 1 0 .001 3.336 1.668 1.668 0 0 0 0-3.336z"/><path id="2c0oc" d="M676.82 911.669a1.668 1.668 0 1 0 0 3.336 1.668 1.668 0 0 0 0-3.336z"/><path id="2c0od" d="M712.725 987.028l-7.972-11.003h4.44l10.532 11.003zm-35.313-7.669l2.416-3.334h20.807l2.416 3.334zm-9.675 7.67h-7.133l10.66-11.004h4.446zm-5.923-68.826a8.36 8.36 0 0 1 6.7-8.175 87.445 87.445 0 0 1 17.105-1.694h8.808c5.814 0 11.654.574 17.359 1.706a8.355 8.355 0 0 1 4.82 2.885 8.36 8.36 0 0 1 1.894 5.291v49.472a5.007 5.007 0 0 1-5.002 5.002h-46.682a5.007 5.007 0 0 1-5.002-5.002zm63.019 69.34l-11.032-11.526c4.457-.16 8.034-3.833 8.034-8.329v-49.472c0-2.694-.942-5.324-2.652-7.407a11.696 11.696 0 0 0-6.749-4.04A92.736 92.736 0 0 0 694.427 905h-8.808a90.76 90.76 0 0 0-17.758 1.758c-5.436 1.087-9.381 5.901-9.381 11.445v49.485c0 4.534 3.637 8.23 8.147 8.332l-11.157 11.516a1.666 1.666 0 0 0 1.197 2.827h11.921c.535 0 1.037-.256 1.35-.69l5.058-6.98h30.471l5.058 6.981c.313.433.815.689 1.35.689h11.754a1.667 1.667 0 0 0 1.204-2.82z"/><path id="2c0oe" d="M711.831 946.014h-20.007v-24.342h20.007zm-23.341 0h-20.007v-24.342h20.007zm25.009-27.676h-46.683c-.92 0-1.668.747-1.668 1.667v27.676c0 .921.747 1.668 1.668 1.668h46.683c.92 0 1.667-.747 1.667-1.668v-27.676c0-.92-.747-1.667-1.667-1.667z"/><path id="2c0of" d="M696.826 911.669h-13.338a1.667 1.667 0 0 0 0 3.334h13.338a1.667 1.667 0 0 0 0-3.334z"/><path id="2c0og" d="M708.497 964.354a3.338 3.338 0 0 1-3.335-3.335 3.338 3.338 0 0 1 3.335-3.334 3.338 3.338 0 0 1 3.334 3.334 3.338 3.338 0 0 1-3.334 3.335zm0-10.004a6.677 6.677 0 0 0-6.67 6.67 6.677 6.677 0 0 0 6.67 6.668 6.677 6.677 0 0 0 6.669-6.669 6.677 6.677 0 0 0-6.67-6.669z"/><path id="2c0oh" d="M671.817 964.354a3.338 3.338 0 0 1-3.334-3.335 3.338 3.338 0 0 1 3.334-3.334 3.338 3.338 0 0 1 3.335 3.334 3.338 3.338 0 0 1-3.335 3.335zm0-10.004a6.677 6.677 0 0 0-6.669 6.67 6.677 6.677 0 0 0 6.67 6.668 6.677 6.677 0 0 0 6.668-6.669 6.677 6.677 0 0 0-6.669-6.669z"/><path id="2c0oi" d="M696.826 956.018h-13.338a1.667 1.667 0 0 0 0 3.334h13.338a1.667 1.667 0 0 0 0-3.334z"/><path id="2c0oj" d="M696.826 962.687h-13.338a1.667 1.667 0 0 0 0 3.334h13.338a1.667 1.667 0 0 0 0-3.334z"/><path id="2c0ok" d="M730.049 896.5h22.213"/><path id="2c0ol" d="M747.44 889l6 7.656-6 7.344"/><path id="2c0om" d="M753.44 917.5h-22.213"/><path id="2c0on" d="M736.049 925l-6-7.656 6-7.344"/></defs><g><g transform="translate(-655 -888)"><g><use fill="#005787" xlink:href="#2c0oa"/></g><g><g><g><g><use fill="#b7b7b7" xlink:href="#2c0ob"/></g></g></g><g><g><g><use fill="#b7b7b7" xlink:href="#2c0oc"/></g></g></g><g><g><g><use fill="#b7b7b7" xlink:href="#2c0od"/></g></g></g><g><g><g><use fill="#b7b7b7" xlink:href="#2c0oe"/></g></g></g><g><g><g><use fill="#b7b7b7" xlink:href="#2c0of"/></g></g></g><g><g><g><use fill="#b7b7b7" xlink:href="#2c0og"/></g></g></g><g><g><g><use fill="#b7b7b7" xlink:href="#2c0oh"/></g></g></g><g><g><g><use fill="#b7b7b7" xlink:href="#2c0oi"/></g></g></g><g><g><g><use fill="#b7b7b7" xlink:href="#2c0oj"/></g></g></g></g></g><g transform="translate(-655 -888)"><g><g><use fill="#fff" fill-opacity="0" stroke="#a2a2a2" stroke-miterlimit="50" stroke-width="2" xlink:href="#2c0ok"/></g><g><use fill="#fff" fill-opacity="0" stroke="#a2a2a2" stroke-miterlimit="50" stroke-width="2" xlink:href="#2c0ol"/></g></g><g><g><use fill="#fff" fill-opacity="0" stroke="#a2a2a2" stroke-miterlimit="50" stroke-width="2" xlink:href="#2c0om"/></g><g><use fill="#fff" fill-opacity="0" stroke="#a2a2a2" stroke-miterlimit="50" stroke-width="2" xlink:href="#2c0on"/></g></g></g></g></svg>