<svg xmlns="http://www.w3.org/2000/svg" xmlns:xlink="http://www.w3.org/1999/xlink" width="95" height="100" viewBox="0 0 95 100"><defs><path id="if9la" d="M934.355 616.07l1.374-3.05h13.77v31.872h-4.264l-2.596-3.89-3.92-2.637h-2.99l-3.93 2.638-3.077 2.47-1.07 1.419h-4.531v-14.145l1.322-1.268H942.64l.806-8.26v-3.49H931.8z"/><path id="if9lb" d="M947.728 576.952l-1.056-3.95a59.19 59.19 0 0 0-6.751 2.25l1.523 3.793a55.237 55.237 0 0 1 6.284-2.093z"/><path id="if9lc" d="M935.458 581.879l-1.968-3.584a59.606 59.606 0 0 0-6.021 3.794l2.383 3.321a55.617 55.617 0 0 1 5.606-3.531z"/><path id="if9ld" d="M917 591.702l3.108 2.656a55.013 55.013 0 0 1 4.602-4.767l-2.765-3.011a58.97 58.97 0 0 0-4.945 5.122z"/><path id="if9le" d="M1005.237 590.057l-3.01 2.765a55.468 55.468 0 0 1 4.18 5.141l3.323-2.383a59.331 59.331 0 0 0-4.493-5.523z"/><path id="if9lf" d="M992.167 584.232a54.995 54.995 0 0 1 5.29 3.99l2.654-3.11a58.705 58.705 0 0 0-5.686-4.287z"/><path id="if9lg" d="M988.258 577.257a59.103 59.103 0 0 0-6.548-2.791l-1.373 3.85a54.776 54.776 0 0 1 6.094 2.598z"/><path id="if9lh" d="M952.432 568.432l2.185 3.304 10.472-.09-3.485-12.014h.752l6.385 11.84 6.87-.23a1.5 1.5 0 0 1 1.036.399c.247.234.383.537.383.855 0 .693-.638 1.256-1.368 1.256l-6.879-.227-6.428 11.918h-.752l3.508-12.097-10.457-.073-2.222 3.368zm-1.148 11.58l2.778.002 2.316-3.513 4.46.031-2.808 9.681v.23a2.22 2.22 0 0 0 2.217 2.217h4.028l6.393-11.855 4.94.163c2.558 0 4.639-2.006 4.639-4.472a4.357 4.357 0 0 0-1.39-3.194c-.871-.823-2.023-1.277-3.297-1.277h-.004l-4.93.164-6.35-11.773-4.034-.002a2.222 2.222 0 0 0-2.212 2.219v.228l2.785 9.604-4.478.039-2.276-3.444-2.777.001a2.07 2.07 0 0 0-2.068 2.067v10.818c0 1.14.927 2.067 2.068 2.067z"/><path id="if9li" d="M933.018 619.24h9.057v8.151h-14.809zm3.653-5.208h12.076v29.753h-3.02a9.057 9.057 0 0 0-17.993 0h-3.02V631.03l.454-.649h18.417c.833 0 1.509-.675 1.509-1.509v-11.17a1.51 1.51 0 0 0-1.51-1.51h-8.453zm64.352-9.978v27.051h-40.984a1.51 1.51 0 1 0 0 3.02h40.984v9.66h-8.045a9.058 9.058 0 0 0-17.995 0h-23.292v-32.863h10.898a1.51 1.51 0 0 0 0-3.02h-10.898v-3.848zm-17.043 47.279a6.038 6.038 0 1 1 6.038-6.038 6.113 6.113 0 0 1-6.038 6.113zm-47.28 0a6.038 6.038 0 1 1 6.04-6.038 6.114 6.114 0 0 1-6.04 6.113zm-13.494-4.529h4.528a9.057 9.057 0 0 0 17.994 0h29.285a9.058 9.058 0 0 0 17.994 0h9.556a1.51 1.51 0 0 0 1.509-1.509v-42.75a1.51 1.51 0 0 0-1.51-1.51h-52.381a1.51 1.51 0 0 0-1.509 1.51v8.468h-12.787a1.511 1.511 0 0 0-1.237.65l-8.257 11.818-3.23 4.53-1.178 1.675a1.508 1.508 0 0 0-.272.86v14.704a1.51 1.51 0 0 0 1.495 1.554z"/></defs><g><g transform="translate(-916 -555)"><g><use fill="#005787" xlink:href="#if9la"/></g><g><g><g><g><use fill="#b7b7b7" xlink:href="#if9lb"/><use fill="#fff" fill-opacity="0" stroke="#2b2b2b" stroke-miterlimit="50" xlink:href="#if9lb"/></g><g><use fill="#b7b7b7" xlink:href="#if9lc"/><use fill="#fff" fill-opacity="0" stroke="#2b2b2b" stroke-miterlimit="50" xlink:href="#if9lc"/></g><g><use fill="#b7b7b7" xlink:href="#if9ld"/><use fill="#fff" fill-opacity="0" stroke="#2b2b2b" stroke-miterlimit="50" xlink:href="#if9ld"/></g><g><use fill="#b7b7b7" xlink:href="#if9le"/><use fill="#fff" fill-opacity="0" stroke="#2b2b2b" stroke-miterlimit="50" xlink:href="#if9le"/></g><g><use fill="#b7b7b7" xlink:href="#if9lf"/><use fill="#fff" fill-opacity="0" stroke="#2b2b2b" stroke-miterlimit="50" xlink:href="#if9lf"/></g><g><use fill="#b7b7b7" xlink:href="#if9lg"/><use fill="#fff" fill-opacity="0" stroke="#2b2b2b" stroke-miterlimit="50" xlink:href="#if9lg"/></g><g><use fill="#b7b7b7" xlink:href="#if9lh"/><use fill="#fff" fill-opacity="0" stroke="#2b2b2b" stroke-miterlimit="50" xlink:href="#if9lh"/></g></g></g></g><g><use fill="#b7b7b7" xlink:href="#if9li"/></g></g></g></svg>