<svg xmlns="http://www.w3.org/2000/svg" xmlns:xlink="http://www.w3.org/1999/xlink" width="122" height="80" viewBox="0 0 122 80"><defs><path id="816aa" d="M785.12 2002.981l6.612-5.53h18.335v47.277h-7.177l-2.796-5.557-4.905-4.405h-7.477l-6.535 4.405-1.374 5.557h-8.68v-20.49l2.099-2.553h26.872v-16.937H785.12z"/><path id="816ab" d="M785.484 2007.182h13.203v11.882H777.1zm5.325-7.593h17.605v43.374h-4.401a13.203 13.203 0 0 0-13.116-11.68 13.202 13.202 0 0 0-13.115 11.68h-4.402v-18.595l.66-.947h26.848a2.2 2.2 0 0 0 2.2-2.2v-16.284a2.2 2.2 0 0 0-2.2-2.2h-12.324zm93.812-14.546v39.436h-59.746a2.2 2.2 0 1 0 0 4.4h59.746v14.084h-11.728a13.205 13.205 0 0 0-26.232 0h-33.956v-47.907h15.888a2.201 2.201 0 0 0 0-4.402h-15.888v-5.61zm-24.845 68.923a8.803 8.803 0 1 1 8.803-8.802 8.912 8.912 0 0 1-8.803 8.912zm-68.923 0a8.803 8.803 0 1 1 8.803-8.802 8.912 8.912 0 0 1-8.803 8.912zm-19.673-6.602h6.602a13.203 13.203 0 0 0 26.23 0h42.693a13.205 13.205 0 0 0 26.232 0h13.93a2.2 2.2 0 0 0 2.2-2.2v-62.321a2.2 2.2 0 0 0-2.2-2.2h-76.363a2.2 2.2 0 0 0-2.2 2.2v12.345h-18.64a2.203 2.203 0 0 0-1.804.947l-12.037 17.23-4.708 6.602-1.717 2.443a2.198 2.198 0 0 0-.397 1.253v21.436a2.202 2.202 0 0 0 2.179 2.265z"/></defs><g><g transform="translate(-768 -1980)"><use fill="#005787" xlink:href="#816aa"/></g><g transform="translate(-768 -1980)"><use fill="#b7b7b7" xlink:href="#816ab"/><use fill="#fff" fill-opacity="0" stroke="#232323" stroke-miterlimit="50" xlink:href="#816ab"/></g></g></svg>