<svg xmlns="http://www.w3.org/2000/svg" xmlns:xlink="http://www.w3.org/1999/xlink" width="90" height="88" viewBox="0 0 90 88"><defs><path id="xkz4a" d="M1476.306 953.113V938.95h54.624v14.335l-26.786-3.01z"/><path id="xkz4b" d="M1518.68 983.106c-3.185 0-4.811 1.953-6.12 3.522-1.307 1.569-2.12 2.448-3.825 2.448a4.29 4.29 0 0 1-3.466-2.033v-29.311h-2.985v26.384a6.273 6.273 0 0 0-3.5-1.01c-3.185 0-4.812 1.953-6.119 3.522-1.307 1.569-2.123 2.448-3.827 2.448-1.705 0-2.526-.885-3.828-2.448a8.121 8.121 0 0 0-5.041-3.433l-6.98-19.045 16.174-3.463-.624-2.92-16.588 3.547-1.95-5.32 33.776-4.22 33.66 4.207-2.273 5.245-16.148-3.461-.627 2.92 15.564 3.335-9.579 22.1a7.134 7.134 0 0 0-5.694-3.014zm-40.277-43.285h50.748v12.116l-25.189-3.149a1.43 1.43 0 0 0-.37 0l-25.189 3.149zm7.314-8.955h36.135l.667 5.97h-37.463zm15.075-8.956h5.97v5.97h-5.97zm43.928 64.716c-1.308-1.568-2.938-3.52-6.126-3.52s-4.816 1.952-6.12 3.52c-1.303 1.57-2.13 2.45-3.842 2.45a3.338 3.338 0 0 1-2.016-.614l14.353-33.118a1.492 1.492 0 0 0-1.185-2.073l-7.648-.961v-13.981c0-.825-.669-1.493-1.493-1.493h-5.127l-.852-7.628a1.493 1.493 0 0 0-1.484-1.327h-13.433v-7.463c0-.825-.668-1.493-1.492-1.493h-8.956c-.824 0-1.492.668-1.492 1.493v7.463h-13.433c-.76 0-1.4.571-1.484 1.327l-.852 7.628h-5.127c-.825 0-1.493.668-1.493 1.493v13.98l-7.648.957a1.493 1.493 0 0 0-1.215 1.995l10.317 28.15a8.926 8.926 0 0 0-4.102 3.217c-1.301 1.563-2.128 2.448-3.826 2.448-1.7 0-2.523-.885-3.824-2.448-1.302-1.563-2.935-3.522-6.12-3.522v2.985c1.705 0 2.522.884 3.824 2.448 1.302 1.562 2.934 3.522 6.12 3.522 3.184 0 4.813-1.954 6.12-3.522 1.305-1.57 2.123-2.448 3.826-2.448 1.703 0 2.525.884 3.827 2.448 1.302 1.562 2.934 3.522 6.121 3.522 3.186 0 4.813-1.954 6.12-3.522 1.305-1.57 2.124-2.448 3.826-2.448 1.703 0 2.527.884 3.83 2.45 1.304 1.563 2.935 3.52 6.12 3.52 3.188 0 4.813-1.954 6.12-3.522 1.308-1.57 2.124-2.448 3.826-2.448 1.703 0 2.527.884 3.83 2.448 1.303 1.562 2.936 3.522 6.122 3.522 3.187 0 4.818-1.952 6.127-3.52 1.31-1.57 2.128-2.45 3.835-2.45 1.708 0 2.528.884 3.834 2.448 1.306 1.562 2.936 3.522 6.126 3.522v-2.985c-1.71 0-2.53-.885-3.834-2.45z"/><path id="xkz4c" d="M1493.329 914.447h5.97v2.986h2.985v-4.478c0-.824-.668-1.493-1.492-1.493h-5.97v-4.477h-2.986v5.97c0 .824.669 1.492 1.493 1.492z"/><path id="xkz4d" d="M1499.3 908.477h5.97v8.956h2.985v-10.448c0-.825-.669-1.493-1.493-1.493h-5.97V904h-2.985v2.985c0 .824.668 1.492 1.492 1.492z"/></defs><g><g transform="translate(-1459 -904)"><g><use fill="#005787" xlink:href="#xkz4a"/></g><g><g><use fill="#b7b7b7" xlink:href="#xkz4b"/></g><g><use fill="#b7b7b7" xlink:href="#xkz4c"/></g><g><use fill="#b7b7b7" xlink:href="#xkz4d"/></g></g></g></g></svg>