<svg xmlns="http://www.w3.org/2000/svg" xmlns:xlink="http://www.w3.org/1999/xlink" width="80" height="86" viewBox="0 0 80 86"><defs><path id="lnkva" d="M1534.452 2057.889l-38.854-39.74h-7.596l-6.225 6.455 34.715 34.6z"/><path id="lnkvb" d="M1472.334 2047.025c0-8.244 3.5-15.686 9.088-20.922l29.925 29.925h-39.013zm24.51-44.18V1998a8.952 8.952 0 0 0 5.222 1.676h13.896a8.952 8.952 0 0 0 5.22-1.676v4.845c0 6.71-5.458 12.17-12.168 12.17-6.71 0-12.17-5.46-12.17-12.17zm-6.67-4.976a3.004 3.004 0 0 1 3.001-3.001h.335v6.002h-.335a3.004 3.004 0 0 1-3.001-3.001zm1.164-13.215c0-3.462 7.261-7.32 17.681-7.32 10.42 0 17.68 3.858 17.68 7.32 0 1.48-1.355 3.051-3.731 4.351h-27.898c-2.376-1.3-3.732-2.873-3.732-4.35zm36.516 13.215a3.004 3.004 0 0 1-3.001 3h-.336v-6.001h.336a3.004 3.004 0 0 1 3 3zm-31.206-5.53h24.732a5.679 5.679 0 0 1-5.418 4.002h-13.896a5.679 5.679 0 0 1-5.418-4.001zm23.002 32.62l-6.61-6.61h3.977c1.686 0 3.352.144 4.983.43zm-16.084-.472l5.448-5.447 9.336 9.336-3.002 7.894zm-5.938-5.938c1.11-.13 2.239-.2 3.383-.2h3.977l-3.78 3.78zm18.435 37.48l-32.069-32.07a28.594 28.594 0 0 1 9.672-4.656l21.17 21.17.003.003 15.552 15.552zm29.537-23.43a1.667 1.667 0 1 0-2.976 1.506c2.037 4.026 3.07 8.374 3.07 12.92v9.003h-10.587l-17.175-17.174 7.341-19.302a28.506 28.506 0 0 1 8.39 4.12 1.667 1.667 0 1 0 1.938-2.714 31.766 31.766 0 0 0-17.04-5.906 15.496 15.496 0 0 0 5.896-10.848h.396a6.343 6.343 0 0 0 6.335-6.335 6.343 6.343 0 0 0-5.95-6.323c3.103-1.88 4.796-4.297 4.796-6.892 0-3.086-2.355-5.88-6.631-7.867-3.87-1.797-8.978-2.787-14.384-2.787-5.405 0-10.514.99-14.383 2.787-4.277 1.987-6.632 4.78-6.632 7.867 0 2.594 1.692 5.01 4.795 6.892a6.343 6.343 0 0 0-5.96 6.323 6.343 6.343 0 0 0 6.336 6.335h.395a15.498 15.498 0 0 0 5.897 10.848 31.9 31.9 0 0 0-5.572.76 1.622 1.622 0 0 0-.205.048c-14.135 3.32-24.69 16.032-24.69 31.165v10.67c0 .921.746 1.668 1.667 1.668h76.693c.921 0 1.668-.747 1.668-1.667v-10.67c0-5.075-1.153-9.929-3.428-14.426z"/><path id="lnkvc" d="M1534.284 2037.092h-9.333a1.667 1.667 0 1 0 0 3.335h9.333a1.668 1.668 0 0 0 0-3.335z"/><path id="lnkvd" d="M1540.266 2029.192a1.68 1.68 0 0 0 1.179-.488c.31-.31.488-.74.488-1.179a1.68 1.68 0 0 0-.488-1.179 1.68 1.68 0 0 0-1.179-.488c-.44 0-.869.178-1.179.488-.31.31-.488.74-.488 1.179 0 .439.178.869.488 1.179.31.31.739.488 1.18.488z"/></defs><g><g transform="translate(-1469 -1974)"><use fill="#005787" xlink:href="#lnkva"/></g><g transform="translate(-1469 -1974)"><g><use fill="#b7b7b7" xlink:href="#lnkvb"/></g><g><use fill="#b7b7b7" xlink:href="#lnkvc"/></g><g><use fill="#b7b7b7" xlink:href="#lnkvd"/></g></g></g></svg>